<svg id="Grupo_4929" data-name="Grupo 4929" xmlns="http://www.w3.org/2000/svg" xmlns:xlink="http://www.w3.org/1999/xlink" width="158.621" height="160.529" viewBox="0 0 158.621 160.529">
  <defs>
    <clipPath id="clip-path">
      <rect id="Rectángulo_4000" data-name="Rectángulo 4000" width="158.621" height="160.529" fill="#e51323"/>
    </clipPath>
    <clipPath id="clip-path-3">
      <rect id="Rectángulo_3995" data-name="Rectángulo 3995" width="158.621" height="130.975" fill="#e51323"/>
    </clipPath>
    <clipPath id="clip-path-5">
      <rect id="Rectángulo_3996" data-name="Rectángulo 3996" width="131.868" height="26.061" fill="#e51323"/>
    </clipPath>
    <clipPath id="clip-path-6">
      <rect id="Rectángulo_3997" data-name="Rectángulo 3997" width="27.155" height="40.698" fill="#f8f4f4"/>
    </clipPath>
    <clipPath id="clip-path-7">
      <rect id="Rectángulo_3998" data-name="Rectángulo 3998" width="70.13" height="70.572" fill="#c42632"/>
    </clipPath>
  </defs>
  <g id="Grupo_4925" data-name="Grupo 4925" clip-path="url(#clip-path)">
    <g id="Grupo_4924" data-name="Grupo 4924">
      <g id="Grupo_4923" data-name="Grupo 4923" clip-path="url(#clip-path)">
        <g id="Grupo_4913" data-name="Grupo 4913" opacity="0.05">
          <g id="Grupo_4912" data-name="Grupo 4912">
            <g id="Grupo_4911" data-name="Grupo 4911" clip-path="url(#clip-path-3)">
              <g id="Grupo_4910" data-name="Grupo 4910" opacity="0.6">
                <g id="Grupo_4909" data-name="Grupo 4909">
                  <g id="Grupo_4908" data-name="Grupo 4908" clip-path="url(#clip-path-3)">
                    <path id="Trazado_7962" data-name="Trazado 7962" d="M37.9,130.974s-51.9-19.812-34.23-35.1c7.1-6.145,34.721-10.473,11.5-44.751C1.514,30.965,21.348,1.607,53,20.248,79.945,36.112,98.682,2.332,122.536.088c18.143-1.706,29.056,21.445,18.11,39.444-12.282,20.2,11.135,16.8,16.226,23.49,8.963,11.771-20.124,25.742-6.781,40.693,13.588,15.228,4.27,24.225,4.27,24.225Z" transform="translate(0 0)" fill="#e51323"/>
                  </g>
                </g>
              </g>
            </g>
          </g>
        </g>
        <g id="Grupo_4916" data-name="Grupo 4916" transform="translate(18.176 134.467)" opacity="0.05">
          <g id="Grupo_4915" data-name="Grupo 4915">
            <g id="Grupo_4914" data-name="Grupo 4914" clip-path="url(#clip-path-5)">
              <path id="Trazado_7963" data-name="Trazado 7963" d="M71.223,147.515S58.5,147.059,48.205,151.6c-5.923,2.615-8.131,4.771-13.1,5.943s-17.579,2-13.768,8.723,3.537,6.708,16.693,5.914,8.7-5.215,20.013-1.419S78.4,174.038,82.866,171.9s12.343-7.386,15.636-7.7,15.489,2.116,25.269,3.5,25.309,2.567,27.905-.589-1.276-8.478-7.237-9.688-9.175-2.76-13.226-3.881-5.043-3.5-11.862-3.818Z" transform="translate(-20.629 -147.502)" fill="#e51323"/>
            </g>
          </g>
        </g>
        <path id="Trazado_7964" data-name="Trazado 7964" d="M107.671,55.4H73.785A13.028,13.028,0,0,0,60.992,67.454l-5.328,58.524h70.13l-5.329-58.524A13.027,13.027,0,0,0,107.671,55.4" transform="translate(-6.619 -4.896)" fill="#e51323"/>
        <path id="Trazado_7965" data-name="Trazado 7965" d="M66.38,76.823a1.776,1.776,0,0,1-.183-.009,1.977,1.977,0,0,1-1.738-2.172l.553-6.076a1.944,1.944,0,0,1,2.1-1.8,1.976,1.976,0,0,1,1.738,2.172L68.3,75.016a1.954,1.954,0,0,1-1.916,1.808" transform="translate(-7.663 -5.9)" fill="#fff"/>
        <path id="Trazado_7966" data-name="Trazado 7966" d="M63.224,108.885a1.779,1.779,0,0,1-.183-.009A1.977,1.977,0,0,1,61.3,106.7l1.915-21.023a1.945,1.945,0,0,1,2.1-1.8,1.978,1.978,0,0,1,1.738,2.173L65.14,107.078a1.954,1.954,0,0,1-1.916,1.808" transform="translate(-7.288 -7.412)" fill="#fff"/>
        <g id="Grupo_4919" data-name="Grupo 4919" transform="translate(70.532 78.944)" opacity="0.2">
          <g id="Grupo_4918" data-name="Grupo 4918">
            <g id="Grupo_4917" data-name="Grupo 4917" clip-path="url(#clip-path-6)">
              <path id="Trazado_7967" data-name="Trazado 7967" d="M106.028,86.718a11.694,11.694,0,0,0,0,22.084,2.588,2.588,0,0,0,3.334-2.541v-17a2.588,2.588,0,0,0-3.334-2.542" transform="translate(-82.207 -86.596)" fill="#f8f4f4"/>
              <path id="Trazado_7968" data-name="Trazado 7968" d="M91.229,97.761a11.534,11.534,0,0,0-7.843-11.043A2.59,2.59,0,0,0,80.05,89.26v17a2.59,2.59,0,0,0,3.336,2.542,11.534,11.534,0,0,0,7.843-11.043" transform="translate(-80.051 -86.596)" fill="#f8f4f4"/>
              <path id="Trazado_7969" data-name="Trazado 7969" d="M99.952,110.527a14.31,14.31,0,0,1-5.373-8.929h-.1a14.31,14.31,0,0,1-5.373,8.929,3.807,3.807,0,0,0-1.477,3.027V128.62h13.8V113.554a3.81,3.81,0,0,0-1.477-3.027" transform="translate(-80.952 -87.922)" fill="#f8f4f4"/>
            </g>
          </g>
        </g>
        <path id="Trazado_7970" data-name="Trazado 7970" d="M55.474,54.282a1.886,1.886,0,0,1-1.363-.584L40.725,39.847a2.044,2.044,0,0,1,0-2.821,1.883,1.883,0,0,1,2.726,0l13.386,13.85a2.044,2.044,0,0,1,0,2.821,1.89,1.89,0,0,1-1.363.584" transform="translate(-4.775 -3.22)" fill="#e51323"/>
        <path id="Trazado_7971" data-name="Trazado 7971" d="M133.12,54.282a1.886,1.886,0,0,1-1.363-.584,2.044,2.044,0,0,1,0-2.821l13.386-13.85a1.883,1.883,0,0,1,2.726,0,2.044,2.044,0,0,1,0,2.821L134.483,53.7a1.89,1.89,0,0,1-1.363.584" transform="translate(-15.6 -3.22)" fill="#e51323"/>
        <path id="Trazado_7972" data-name="Trazado 7972" d="M95.2,36.454a1.962,1.962,0,0,1-1.928-1.995V14.872a1.929,1.929,0,1,1,3.856,0V34.459A1.962,1.962,0,0,1,95.2,36.454" transform="translate(-11.091 -1.138)" fill="#e51323"/>
        <g id="Grupo_4922" data-name="Grupo 4922" transform="translate(49.045 50.51)" opacity="0.5" style="mix-blend-mode: multiply;isolation: isolate">
          <g id="Grupo_4921" data-name="Grupo 4921">
            <g id="Grupo_4920" data-name="Grupo 4920" clip-path="url(#clip-path-7)">
              <path id="Trazado_7973" data-name="Trazado 7973" d="M124.341,110.023h0l-3.876-42.569a13.027,13.027,0,0,0-12.793-12.048H96.106A13.027,13.027,0,0,1,108.9,67.454l2.552,28.027a13.127,13.127,0,0,1-12.794,14.542H57.116l-1.452,15.955h70.13Z" transform="translate(-55.664 -55.406)" fill="#c42632"/>
            </g>
          </g>
        </g>
        <path id="Trazado_7974" data-name="Trazado 7974" d="M125.046,128.943H55.71a3.044,3.044,0,0,0-2.99,3.094v8.7h75.317v-8.7a3.044,3.044,0,0,0-2.99-3.094" transform="translate(-6.269 -11.395)" fill="#000232"/>
        <path id="Trazado_7975" data-name="Trazado 7975" d="M133.246,128.943H121.681a3.044,3.044,0,0,1,2.99,3.094v8.7h11.565v-8.7a3.044,3.044,0,0,0-2.99-3.094" transform="translate(-14.469 -11.395)" fill="#000232"/>
        <path id="Trazado_7976" data-name="Trazado 7976" d="M135.349,155.518H43.128V144.882a6.539,6.539,0,0,1,6.425-6.648h79.371a6.539,6.539,0,0,1,6.425,6.648Z" transform="translate(-5.128 -12.216)" fill="#bababa"/>
        <path id="Trazado_7977" data-name="Trazado 7977" d="M138.248,138.234H121.542a6.539,6.539,0,0,1,6.425,6.648v10.637h16.706V144.882a6.539,6.539,0,0,0-6.425-6.648" transform="translate(-14.452 -12.216)" fill="#d1d1d1"/>
      </g>
    </g>
  </g>
</svg>
